<?xml version="1.0" encoding="utf-8"?>
<!-- Generator: Adobe Illustrator 24.0.3, SVG Export Plug-In . SVG Version: 6.00 Build 0)  -->
<svg version="1.1" id="レイヤー_1" xmlns="http://www.w3.org/2000/svg" xmlns:xlink="http://www.w3.org/1999/xlink" x="0px"
	 y="0px" viewBox="0 0 290 18.7" style="enable-background:new 0 0 290 18.7;" xml:space="preserve">
<style type="text/css">
	.st0{fill:#323232;}
</style>
<g>
	<path class="st0" d="M4.7,8.8L0,0.6h1.9L5.5,7l3.7-6.4h1.9L6.3,8.8V15H4.7V8.8z"/>
	<path class="st0" d="M16,9.4c0,1.2,0,2.5,1.1,3.5c0.6,0.5,1.6,0.8,2.4,0.8c0.8,0,1.8-0.3,2.4-0.8C23,12,23,10.6,23,9.4V0.6h1.6v9.3
		c0,1.2-0.1,2.4-0.9,3.5c-0.9,1.2-2.4,1.9-4.2,1.9c-1.8,0-3.3-0.8-4.2-1.9c-0.8-1.1-0.9-2.2-0.9-3.5V0.6H16V9.4z"/>
	<path class="st0" d="M31,0.6V15h-1.6V0.6H31z"/>
	<path class="st0" d="M47.3,3.8c-0.5-0.5-1.1-1-1.9-1.3c-0.8-0.3-1.6-0.6-2.5-0.6c-3.3,0-5.8,2.7-5.8,6c0,3.9,3.2,5.9,5.8,5.9
		c1,0,1.9-0.3,2.7-0.7c0.8-0.4,1.4-0.9,1.7-1.2v2c-1.6,1.1-3.3,1.4-4.3,1.4c-4.3,0-7.4-3.2-7.4-7.4c0-4.3,3.2-7.5,7.5-7.5
		c0.9,0,2.5,0.1,4.3,1.4V3.8z"/>
	<path class="st0" d="M53.8,6.5h7.4V0.6h1.6V15h-1.6V8h-7.4v7h-1.6V0.6h1.6V6.5z"/>
	<path class="st0" d="M69.3,0.6V15h-1.6V0.6H69.3z"/>
	<path class="st0" d="M82.3,15V0l11.2,11.8V0.6h1.6v15L83.9,3.9V15H82.3z"/>
	<path class="st0" d="M98.4,7.8c0-4.3,3.3-7.4,7.5-7.4s7.5,3.2,7.5,7.4c0,4.3-3.3,7.4-7.5,7.4C101.7,15.3,98.4,12.1,98.4,7.8z
		 M100,7.8c0,3.3,2.6,5.9,5.8,5.9c3.2,0,5.9-2.6,5.9-5.9s-2.6-5.9-5.9-5.9C102.6,1.9,100,4.5,100,7.8z"/>
	<path class="st0" d="M124.8,7.8h6v0.3c0,1.6-0.5,3.3-1.4,4.6c-0.4,0.6-2.1,2.6-5.4,2.6c-4.3,0-7.5-3.3-7.5-7.4s3.2-7.4,7.5-7.4
		c1.4,0,3,0.3,4.4,1.4c0.6,0.5,1.3,1.1,1.7,1.7L129,4.6c-0.4-0.6-0.9-1.1-1.4-1.5c-0.7-0.6-1.8-1.2-3.5-1.2c-3.5,0-5.9,2.6-5.9,6
		c0,3.9,3.1,5.9,5.9,5.9c1.9,0,3.6-1,4.4-2.4c0.3-0.5,0.5-1.1,0.6-2.1h-4.3V7.8z"/>
	<path class="st0" d="M136.4,9.4c0,1.2,0,2.5,1.1,3.5c0.6,0.5,1.6,0.8,2.4,0.8c0.8,0,1.8-0.3,2.4-0.8c1.1-1,1.1-2.3,1.1-3.5V0.6h1.6
		v9.3c0,1.2-0.1,2.4-0.9,3.5c-0.9,1.2-2.4,1.9-4.2,1.9c-1.8,0-3.3-0.8-4.2-1.9c-0.8-1.1-0.9-2.2-0.9-3.5V0.6h1.6V9.4z"/>
	<path class="st0" d="M160.4,3.8c-0.5-0.5-1.1-1-1.9-1.3c-0.8-0.3-1.6-0.6-2.5-0.6c-3.3,0-5.8,2.7-5.8,6c0,3.9,3.2,5.9,5.8,5.9
		c1,0,1.9-0.3,2.7-0.7c0.8-0.4,1.4-0.9,1.7-1.2v2c-1.6,1.1-3.3,1.4-4.3,1.4c-4.3,0-7.4-3.2-7.4-7.4c0-4.3,3.2-7.5,7.5-7.5
		c0.9,0,2.5,0.1,4.3,1.4V3.8z"/>
	<path class="st0" d="M166.4,6.5h7.4V0.6h1.6V15h-1.6V8h-7.4v7h-1.6V0.6h1.6V6.5z"/>
	<path class="st0" d="M181.8,0.6V15h-1.6V0.6H181.8z"/>
	<path class="st0" d="M196.5,4.2c1.1,0,2,0.1,2.7,0.8c0.8,0.7,1,1.6,1,2.3c0,1.5-1,3-3.4,3h-1.1V15h-1.2V4.2H196.5z M195.8,9.2h1
		c1.4,0,2.3-0.7,2.3-2c0-1.7-1.6-1.9-2.4-1.9h-0.9V9.2z"/>
	<path class="st0" d="M202.7,3.2h1.2v5.9c0.2-0.3,0.8-0.9,1.9-0.9c0.8,0,1.5,0.3,1.9,0.9c0.3,0.5,0.4,1.1,0.4,1.8V15H207v-4.1
		c0-0.4,0-0.9-0.3-1.2c-0.2-0.3-0.6-0.5-1.1-0.5c-0.4,0-0.8,0.1-1.2,0.5c-0.5,0.5-0.5,1.3-0.5,1.8V15h-1.2V3.2z"/>
	<path class="st0" d="M210.7,11.7c0-2,1.5-3.5,3.6-3.5s3.6,1.5,3.6,3.5s-1.5,3.5-3.6,3.5S210.7,13.7,210.7,11.7z M211.9,11.7
		c0,1.7,1.2,2.5,2.4,2.5c1.2,0,2.4-0.9,2.4-2.5c0-1.7-1.1-2.5-2.4-2.5S211.9,10,211.9,11.7z"/>
	<path class="st0" d="M222,9.4V15h-1.2V9.4h-0.7V8.3h0.7V5.9h1.2v2.4h1.2v1.1H222z"/>
	<path class="st0" d="M225,11.7c0-2,1.5-3.5,3.6-3.5s3.6,1.5,3.6,3.5s-1.5,3.5-3.6,3.5C226.6,15.2,225,13.7,225,11.7z M226.2,11.7
		c0,1.7,1.2,2.5,2.4,2.5c1.2,0,2.4-0.9,2.4-2.5c0-1.7-1.1-2.5-2.4-2.5C227.4,9.2,226.2,10,226.2,11.7z"/>
	<path class="st0" d="M240.3,8.3h1.2v6.6c0,0.7,0,1.8-0.6,2.6c-0.5,0.7-1.4,1.2-2.7,1.2c-1.1,0-1.9-0.5-2.4-0.9
		c-0.5-0.5-0.9-1.2-0.9-2.2h1.1c0,0.6,0.2,1.1,0.5,1.4c0.5,0.5,1.1,0.6,1.6,0.6c0.8,0,1.4-0.3,1.8-0.9c0.3-0.6,0.4-1.1,0.4-1.7v-1
		c-0.4,0.5-1.1,1.1-2.3,1.1c-1,0-1.8-0.4-2.3-0.9c-0.5-0.5-1-1.3-1-2.7c0-1.3,0.5-2.1,1-2.6c0.6-0.6,1.4-0.9,2.3-0.9
		c1,0,1.8,0.4,2.3,1.1V8.3z M236.6,9.8c-0.6,0.6-0.7,1.3-0.7,1.8c0,0.6,0.1,1.4,0.8,2c0.4,0.3,0.8,0.6,1.4,0.6
		c0.6,0,1.1-0.2,1.5-0.6c0.5-0.4,0.8-1.1,0.8-1.9c0-0.8-0.3-1.5-0.7-1.9c-0.4-0.4-0.9-0.6-1.5-0.6C237.4,9.2,236.9,9.5,236.6,9.8z"
		/>
	<path class="st0" d="M244.6,8.3h1.2V9c0.1-0.2,0.6-0.9,1.5-0.9c0.4,0,0.7,0.1,1,0.3l-0.6,1.1c-0.3-0.2-0.5-0.2-0.7-0.2
		c-0.5,0-0.8,0.2-0.9,0.4c-0.2,0.3-0.4,0.7-0.4,1.8V15h-1.2V8.3z"/>
	<path class="st0" d="M255.7,8.3h1.2V15h-1.2v-0.9c-0.4,0.5-1.1,1.1-2.3,1.1c-1.7,0-3.3-1.2-3.3-3.6c0-2.3,1.6-3.5,3.3-3.5
		c1.3,0,2,0.7,2.3,1.1V8.3z M251.3,11.6c0,1.4,0.8,2.5,2.2,2.5c1.4,0,2.2-1.2,2.2-2.5c0-1.7-1.2-2.5-2.2-2.5
		C252.4,9.2,251.3,10,251.3,11.6z"/>
	<path class="st0" d="M261.2,18.7H260V8.3h1.2v0.9c0.8-1,1.8-1.1,2.3-1.1c2.1,0,3.3,1.7,3.3,3.6c0,1.8-1.2,3.5-3.2,3.5
		c-1.1,0-1.8-0.5-2.3-1.1V18.7z M265.5,11.7c0-1.7-1.1-2.5-2.2-2.5c-1.1,0-2.2,0.9-2.2,2.5c0,1.4,0.9,2.5,2.3,2.5
		C264.7,14.2,265.5,13,265.5,11.7z"/>
	<path class="st0" d="M269.3,3.2h1.2v5.9c0.2-0.3,0.8-0.9,1.9-0.9c0.8,0,1.5,0.3,1.9,0.9c0.3,0.5,0.4,1.1,0.4,1.8V15h-1.2v-4.1
		c0-0.4,0-0.9-0.3-1.2c-0.2-0.3-0.6-0.5-1.1-0.5c-0.4,0-0.8,0.1-1.2,0.5c-0.5,0.5-0.5,1.3-0.5,1.8V15h-1.2V3.2z"/>
	<path class="st0" d="M283.7,13.3c-0.2,0.4-0.5,0.8-0.8,1.1c-0.6,0.6-1.4,0.8-2.2,0.8c-1.6,0-3.3-1-3.3-3.5c0-2,1.2-3.6,3.3-3.6
		c1.3,0,2.1,0.6,2.5,1.2c0.4,0.6,0.7,1.6,0.6,2.5h-5.2c0,1.4,1,2.3,2.1,2.3c0.6,0,1-0.2,1.4-0.5c0.3-0.3,0.6-0.6,0.7-0.9L283.7,13.3
		z M282.6,10.9c-0.2-1.1-1-1.7-2-1.7s-1.8,0.7-2,1.7H282.6z"/>
	<path class="st0" d="M286.3,8.3h1.2V9c0.1-0.2,0.6-0.9,1.5-0.9c0.4,0,0.7,0.1,1,0.3l-0.6,1.1c-0.3-0.2-0.5-0.2-0.7-0.2
		c-0.5,0-0.8,0.2-0.9,0.4c-0.2,0.3-0.4,0.7-0.4,1.8V15h-1.2V8.3z"/>
</g>
</svg>
