<?xml version="1.0" encoding="utf-8"?>
<!-- Generator: Adobe Illustrator 24.0.3, SVG Export Plug-In . SVG Version: 6.00 Build 0)  -->
<svg version="1.1" id="mobiletitle" xmlns="http://www.w3.org/2000/svg" xmlns:xlink="http://www.w3.org/1999/xlink" x="0px"
	 y="0px" viewBox="0 0 200 43.3" style="enable-background:new 0 0 200 43.3;" xml:space="preserve">
<style type="text/css">
	.st0{fill:#ffffff;}
</style>
<g>
	<path class="st0" d="M5.2,9.7L0,0.7h2l4,7.1l4.1-7.1h2L7,9.7v6.8H5.2V9.7z"/>
	<path class="st0" d="M17.5,10.4c0,1.3,0,2.8,1.3,3.8c0.6,0.5,1.7,0.9,2.6,0.9c0.9,0,2-0.4,2.6-0.9c1.3-1.1,1.3-2.5,1.3-3.8V0.7H27
		v10.2c0,1.3-0.1,2.6-1,3.8c-0.9,1.3-2.6,2.1-4.6,2.1c-2,0-3.7-0.8-4.6-2.1c-0.9-1.2-1-2.5-1-3.8V0.7h1.8V10.4z"/>
	<path class="st0" d="M34.1,0.7v15.8h-1.8V0.7H34.1z"/>
	<path class="st0" d="M52.1,4.2c-0.5-0.5-1.3-1.1-2.1-1.5c-0.8-0.4-1.8-0.6-2.7-0.6c-3.7,0-6.4,2.9-6.4,6.6c0,4.3,3.5,6.5,6.4,6.5
		c1.1,0,2.1-0.3,2.9-0.7c0.9-0.5,1.5-1,1.8-1.3v2.2c-1.8,1.3-3.6,1.5-4.8,1.5c-4.7,0-8.2-3.6-8.2-8.1c0-4.7,3.5-8.2,8.3-8.2
		c0.9,0,2.8,0.1,4.7,1.6V4.2z"/>
	<path class="st0" d="M59.2,7.1h8.1V0.7h1.8v15.8h-1.8V8.8h-8.1v7.7h-1.8V0.7h1.8V7.1z"/>
	<path class="st0" d="M76.2,0.7v15.8h-1.8V0.7H76.2z"/>
	<path class="st0" d="M90.5,16.5V0l12.3,12.9V0.7h1.8v16.5L92.2,4.3v12.2H90.5z"/>
	<path class="st0" d="M108.2,8.6c0-4.7,3.7-8.2,8.2-8.2c4.6,0,8.2,3.5,8.2,8.2c0,4.7-3.7,8.2-8.2,8.2
		C111.8,16.8,108.2,13.3,108.2,8.6z M110,8.6c0,3.6,2.9,6.5,6.4,6.5c3.6,0,6.4-2.9,6.4-6.5s-2.9-6.5-6.4-6.5
		C112.9,2.1,110,5,110,8.6z"/>
	<path class="st0" d="M137.3,8.5h6.6v0.4c0,1.8-0.5,3.7-1.5,5c-0.5,0.6-2.3,2.8-5.9,2.8c-4.7,0-8.2-3.6-8.2-8.2s3.5-8.2,8.3-8.2
		c1.5,0,3.3,0.4,4.8,1.6c0.7,0.5,1.4,1.3,1.8,1.9L141.9,5c-0.5-0.6-1-1.2-1.5-1.6c-0.8-0.6-1.9-1.3-3.8-1.3c-3.8,0-6.5,2.9-6.5,6.6
		c0,4.3,3.4,6.5,6.4,6.5c2.1,0,3.9-1.1,4.8-2.7c0.3-0.5,0.6-1.3,0.6-2.3h-4.7V8.5z"/>
	<path class="st0" d="M150,10.4c0,1.3,0,2.8,1.3,3.8c0.6,0.5,1.7,0.9,2.6,0.9c0.9,0,2-0.4,2.6-0.9c1.3-1.1,1.3-2.5,1.3-3.8V0.7h1.8
		v10.2c0,1.3-0.1,2.6-1,3.8c-0.9,1.3-2.6,2.1-4.6,2.1c-2,0-3.7-0.8-4.6-2.1c-0.9-1.2-1-2.5-1-3.8V0.7h1.8V10.4z"/>
	<path class="st0" d="M176.5,4.2c-0.5-0.5-1.3-1.1-2.1-1.5c-0.8-0.4-1.8-0.6-2.7-0.6c-3.7,0-6.4,2.9-6.4,6.6c0,4.3,3.5,6.5,6.4,6.5
		c1.1,0,2.1-0.3,2.9-0.7c0.9-0.5,1.5-1,1.8-1.3v2.2c-1.8,1.3-3.6,1.5-4.8,1.5c-4.7,0-8.2-3.6-8.2-8.1c0-4.7,3.5-8.2,8.3-8.2
		c0.9,0,2.8,0.1,4.7,1.6V4.2z"/>
	<path class="st0" d="M183,7.1h8.1V0.7h1.8v15.8h-1.8V8.8H183v7.7h-1.8V0.7h1.8V7.1z"/>
	<path class="st0" d="M200,0.7v15.8h-1.8V0.7H200z"/>
	<path class="st0" d="M3.5,27.4c1.2,0,2.2,0.1,3,0.8C7.4,29,7.6,30,7.6,30.8c0,1.7-1.1,3.3-3.8,3.3H2.7v5.2H1.3V27.4H3.5z M2.7,32.8
		h1.1c1.6,0,2.5-0.8,2.5-2.2c0-1.9-1.8-2.1-2.6-2.1h-1V32.8z"/>
	<path class="st0" d="M10.3,26.3h1.3v6.4c0.2-0.3,0.9-1,2.1-1c0.9,0,1.7,0.4,2.1,1c0.4,0.6,0.4,1.2,0.4,2v4.6H15v-4.5
		c0-0.4,0-1-0.3-1.4c-0.2-0.3-0.6-0.5-1.2-0.5c-0.4,0-0.9,0.1-1.3,0.6c-0.5,0.6-0.5,1.5-0.5,2v3.9h-1.3V26.3z"/>
	<path class="st0" d="M19.1,35.6c0-2.2,1.7-3.9,3.9-3.9s3.9,1.7,3.9,3.9s-1.7,3.9-3.9,3.9C20.7,39.5,19.1,37.8,19.1,35.6z
		 M20.4,35.6c0,1.8,1.3,2.7,2.6,2.7c1.3,0,2.6-0.9,2.6-2.7c0-1.8-1.2-2.8-2.6-2.8C21.6,32.8,20.4,33.8,20.4,35.6z"/>
	<path class="st0" d="M31.5,33v6.2h-1.3V33h-0.8v-1.2h0.8v-2.7h1.3v2.7h1.3V33H31.5z"/>
	<path class="st0" d="M34.8,35.6c0-2.2,1.7-3.9,3.9-3.9c2.3,0,3.9,1.7,3.9,3.9s-1.7,3.9-3.9,3.9C36.5,39.5,34.8,37.8,34.8,35.6z
		 M36.1,35.6c0,1.8,1.3,2.7,2.6,2.7c1.3,0,2.6-0.9,2.6-2.7c0-1.8-1.2-2.8-2.6-2.8C37.4,32.8,36.1,33.8,36.1,35.6z"/>
	<path class="st0" d="M51.6,31.9h1.3v7.2c0,0.8,0,1.9-0.7,2.9c-0.6,0.7-1.6,1.4-3,1.4c-1.3,0-2.1-0.5-2.6-1c-0.5-0.5-1-1.3-1-2.4
		h1.3c0,0.6,0.2,1.2,0.6,1.5c0.5,0.6,1.2,0.7,1.8,0.7c0.9,0,1.5-0.3,2-1c0.4-0.6,0.4-1.3,0.4-1.9v-1.1c-0.4,0.6-1.2,1.2-2.5,1.2
		c-1.1,0-2-0.4-2.5-1C46,38,45.4,37,45.4,35.5c0-1.4,0.5-2.3,1.1-2.9c0.6-0.6,1.5-1,2.5-1c1.1,0,1.9,0.5,2.5,1.2V31.9z M47.5,33.5
		c-0.6,0.6-0.7,1.4-0.7,2c0,0.6,0.1,1.5,0.8,2.2c0.4,0.4,0.9,0.6,1.6,0.6c0.7,0,1.2-0.2,1.6-0.6c0.5-0.5,0.8-1.3,0.8-2.1
		s-0.3-1.6-0.8-2.1c-0.4-0.4-1-0.7-1.7-0.7C48.4,32.8,47.9,33.2,47.5,33.5z"/>
	<path class="st0" d="M56.4,31.9h1.3v0.8c0.1-0.2,0.7-1,1.7-1c0.4,0,0.8,0.1,1.1,0.3l-0.6,1.2c-0.3-0.2-0.6-0.2-0.7-0.2
		c-0.5,0-0.8,0.2-1,0.5c-0.2,0.3-0.4,0.8-0.4,2v3.9h-1.3V31.9z"/>
	<path class="st0" d="M68.6,31.9h1.3v7.4h-1.3v-1c-0.4,0.6-1.2,1.2-2.5,1.2c-1.9,0-3.6-1.3-3.6-3.9c0-2.5,1.7-3.9,3.6-3.9
		c1.4,0,2.2,0.8,2.5,1.2V31.9z M63.7,35.5c0,1.6,0.9,2.8,2.4,2.8c1.6,0,2.5-1.3,2.5-2.8c0-1.9-1.3-2.7-2.5-2.7
		C64.9,32.8,63.7,33.7,63.7,35.5z"/>
	<path class="st0" d="M74.6,43.3h-1.3V31.9h1.3v1c0.9-1.1,2-1.2,2.5-1.2c2.3,0,3.6,1.9,3.6,3.9c0,2-1.3,3.9-3.5,3.9
		c-1.2,0-2-0.5-2.6-1.2V43.3z M79.4,35.6c0-1.8-1.2-2.8-2.4-2.8c-1.2,0-2.5,1-2.5,2.8c0,1.5,1,2.7,2.5,2.7
		C78.5,38.3,79.4,37.1,79.4,35.6z"/>
	<path class="st0" d="M83.5,26.3h1.3v6.4c0.2-0.3,0.9-1,2.1-1c0.9,0,1.7,0.4,2.1,1c0.4,0.6,0.4,1.2,0.4,2v4.6h-1.3v-4.5
		c0-0.4,0-1-0.3-1.4c-0.2-0.3-0.6-0.5-1.2-0.5c-0.4,0-0.9,0.1-1.3,0.6c-0.5,0.6-0.5,1.5-0.5,2v3.9h-1.3V26.3z"/>
	<path class="st0" d="M99.4,37.4c-0.2,0.4-0.5,0.9-0.9,1.2c-0.7,0.6-1.5,0.9-2.5,0.9c-1.8,0-3.7-1.1-3.7-3.9c0-2.2,1.4-3.9,3.6-3.9
		c1.4,0,2.4,0.7,2.8,1.4c0.5,0.7,0.7,1.8,0.7,2.8h-5.8c0,1.5,1.1,2.5,2.4,2.5c0.6,0,1.1-0.2,1.5-0.5c0.3-0.3,0.6-0.7,0.8-1
		L99.4,37.4z M98.1,34.7c-0.2-1.2-1.1-1.9-2.2-1.9c-1.1,0-2,0.8-2.2,1.9H98.1z"/>
	<path class="st0" d="M102.2,31.9h1.3v0.8c0.1-0.2,0.7-1,1.7-1c0.4,0,0.8,0.1,1.1,0.3l-0.6,1.2c-0.3-0.2-0.6-0.2-0.7-0.2
		c-0.5,0-0.8,0.2-1,0.5c-0.2,0.3-0.4,0.8-0.4,2v3.9h-1.3V31.9z"/>
</g>
</svg>
